<?xml version="1.0" standalone="no"?>
<!DOCTYPE svg PUBLIC "-//W3C//DTD SVG 20010904//EN"
 "http://www.w3.org/TR/2001/REC-SVG-20010904/DTD/svg10.dtd">
<svg version="1.0" xmlns="http://www.w3.org/2000/svg"
 width="225.000000pt" height="225.000000pt" viewBox="0 0 225.000000 225.000000"
 preserveAspectRatio="xMidYMid meet">
<metadata>
Created by potrace 1.14, written by Peter Selinger 2001-2017
</metadata>
<g transform="translate(0.000000,225.000000) scale(0.100000,-0.100000)"
fill="#000000" stroke="none">
<path d="M0 1125 l0 -1125 1125 0 1125 0 0 1125 0 1125 -1125 0 -1125 0 0
-1125z m1342 856 c124 -32 271 -113 338 -187 14 -15 0 -7 -31 18 -157 126
-352 188 -552 175 -359 -23 -645 -264 -737 -620 -10 -39 -19 -61 -19 -48 -3
79 75 264 157 372 94 124 245 230 396 279 133 43 306 47 448 11z m-16 -82
c116 -29 260 -113 334 -195 14 -15 -6 -1 -45 30 -177 146 -401 204 -613 160
-298 -61 -512 -281 -572 -587 -7 -32 -14 -56 -17 -54 -10 10 27 159 58 233 96
229 330 404 584 434 79 10 183 2 271 -21z m-1 -74 c86 -30 173 -77 218 -119
24 -23 32 -31 18 -19 -51 43 -147 94 -226 120 -101 33 -254 37 -355 10 -199
-53 -372 -206 -441 -389 -12 -32 -24 -57 -26 -54 -11 11 32 111 76 178 88 135
227 236 383 278 91 25 274 22 353 -5z m-99 -45 c76 -14 175 -53 231 -91 23
-17 43 -32 43 -35 0 -3 -12 3 -27 14 -92 64 -212 102 -330 102 -99 0 -164 -15
-260 -61 -138 -66 -239 -179 -295 -332 -25 -68 -33 -71 -13 -4 60 200 233 355
450 402 75 17 125 18 201 5z m525 -57 c13 -16 12 -17 -3 -4 -10 7 -18 15 -18
17 0 8 8 3 21 -13z m-450 -24 c57 -20 139 -63 139 -73 0 -2 -24 9 -52 24 -90
48 -158 63 -272 58 -202 -9 -354 -108 -448 -290 -15 -29 -28 -47 -28 -39 0 30
68 137 121 191 67 66 173 125 262 146 81 18 196 11 278 -17z m-28 -46 c32 -9
60 -20 64 -26 4 -7 0 -8 -13 -2 -79 33 -210 44 -294 24 -120 -28 -247 -125
-309 -239 -37 -67 -41 -59 -5 12 48 95 153 188 254 223 103 36 189 39 303 8z
m262 -23 c10 -11 16 -20 13 -20 -3 0 -13 9 -23 20 -10 11 -16 20 -13 20 3 0
13 -9 23 -20z m-293 -19 c9 -3 -36 -6 -100 -6 -107 0 -122 -2 -176 -28 -78
-36 -137 -86 -177 -147 -18 -28 -34 -48 -36 -46 -9 9 47 83 96 129 57 54 137
94 209 107 47 8 151 3 184 -9z m173 -31 c3 -5 -10 -1 -29 11 -20 12 -36 23
-36 25 0 7 58 -25 65 -36z m-110 2 c-3 -3 -11 0 -18 7 -9 10 -8 11 6 5 10 -3
15 -9 12 -12z m-50 -32 c15 -14 36 -44 46 -67 10 -24 25 -43 34 -43 20 0 19
18 -5 65 l-20 40 25 -28 c14 -15 25 -34 25 -42 0 -7 8 -21 17 -31 9 -9 18 -25
18 -35 1 -15 -5 -19 -27 -19 -40 0 -34 -33 7 -40 40 -7 48 -40 10 -40 -40 0
-29 -34 12 -38 39 -4 35 -32 -4 -32 -38 0 -26 -33 15 -41 47 -10 58 -24 20
-27 -39 -3 -48 -9 -42 -26 3 -8 23 -16 45 -20 49 -8 50 -23 3 -32 -52 -10 -42
-37 16 -44 43 -6 44 -6 20 -17 -14 -6 -33 -14 -42 -17 -32 -10 -9 -36 32 -36
23 0 40 -5 43 -14 3 -7 0 -13 -6 -13 -56 1 -68 -3 -65 -25 2 -18 11 -24 43
-28 l40 -6 -37 -14 c-41 -15 -42 -18 -29 -39 6 -9 22 -12 52 -9 24 3 36 3 27
1 -20 -5 -25 -33 -5 -33 6 0 4 -5 -5 -11 -13 -7 -18 -23 -18 -59 0 -27 -5 -60
-11 -72 -12 -28 -63 -64 -84 -60 -8 2 -15 -1 -15 -6 0 -13 -67 -42 -97 -42
-25 0 -24 2 20 43 31 29 47 53 52 79 9 48 4 72 -18 76 -13 3 -17 -4 -17 -31 0
-48 -19 -96 -43 -108 -18 -10 -19 -9 -12 12 4 13 8 44 9 69 1 39 -2 45 -21 48
-16 2 -23 10 -23 27 0 27 12 33 98 45 72 10 77 12 68 36 -6 17 -23 17 -148 -3
-30 -4 -38 -2 -38 10 0 17 13 23 80 32 94 13 98 15 92 37 -4 16 -10 19 -36 14
-17 -4 -59 -10 -93 -13 -117 -11 -59 26 65 42 54 7 58 10 43 34 -7 12 -22 12
-89 1 -44 -7 -86 -9 -93 -5 -19 12 28 33 92 40 67 8 82 16 73 39 -5 14 -14 17
-38 12 -69 -14 -146 -19 -146 -8 0 14 26 23 105 36 51 8 70 15 70 26 0 13 -16
14 -99 11 -69 -2 -97 0 -92 7 10 16 74 32 129 32 44 0 47 2 47 26 0 22 -4 25
-22 21 -54 -13 -166 -19 -172 -9 -8 13 41 28 116 37 61 7 72 13 59 33 -6 10
-29 11 -95 4 -48 -4 -89 -5 -92 -1 -7 12 27 26 81 34 82 10 95 15 95 31 0 14
-12 15 -95 9 -89 -7 -95 -6 -95 12 0 10 -6 25 -12 33 -11 12 -10 12 4 1 23
-17 38 -6 38 27 0 33 -26 67 -60 82 -21 9 -19 10 15 4 47 -6 66 -22 81 -67 13
-38 44 -50 44 -17 0 39 -29 80 -61 87 -37 7 -48 23 -15 23 32 0 85 -45 102
-87 14 -33 28 -41 39 -23 9 15 -21 65 -57 95 -31 26 -37 27 -113 23 -106 -6
-179 -40 -260 -122 -64 -66 -57 -49 9 22 74 79 159 112 278 109 77 -2 89 -5
113 -27z m90 20 c3 -6 -1 -7 -9 -4 -18 7 -21 14 -7 14 6 0 13 -4 16 -10z
m-431 -140 c16 -6 28 -21 34 -42 6 -18 13 -40 16 -49 5 -10 -1 -19 -19 -27
-38 -18 -32 -42 10 -42 41 0 45 -12 9 -29 -32 -14 -29 -46 6 -47 45 -2 45 -4
12 -24 -40 -25 -37 -44 6 -48 39 -4 42 -17 6 -26 -19 -5 -25 -12 -22 -29 2
-17 9 -21 31 -19 34 4 35 -11 1 -27 -37 -17 -28 -46 14 -45 39 2 41 -10 5 -28
-39 -19 -36 -42 6 -46 l34 -4 -28 -22 c-36 -29 -29 -62 10 -52 32 8 32 -3 -2
-29 -29 -24 -25 -45 9 -45 19 0 20 -4 16 -75 -4 -58 -2 -75 9 -80 8 -3 20 -2
26 1 7 3 3 -2 -7 -10 -12 -10 -39 -16 -68 -16 -58 0 -102 34 -122 95 l-14 40
31 10 c18 6 33 18 35 29 4 17 -1 18 -37 13 -51 -6 -56 13 -9 34 42 19 48 39
11 39 -16 0 -34 -5 -40 -11 -7 -7 -12 -6 -16 5 -5 11 5 22 34 37 22 11 38 25
36 32 -5 13 -5 13 -54 2 -46 -9 -44 17 2 35 23 9 35 20 35 33 0 19 -16 19 -64
1 -11 -4 -16 -1 -16 10 0 9 6 16 14 16 23 0 57 34 48 48 -7 9 -16 10 -41 1
-36 -13 -56 -3 -27 15 47 28 61 44 50 56 -9 9 -19 8 -43 -4 -30 -16 -31 -16
-31 4 0 11 6 20 13 20 7 0 23 10 36 21 17 16 20 24 11 33 -8 8 -18 7 -40 -6
-19 -11 -32 -13 -36 -7 -3 6 -4 11 -3 13 2 1 19 13 37 25 52 36 40 70 -13 35
-23 -15 -24 -15 -31 11 -10 42 12 99 57 144 23 23 43 41 45 41 1 0 14 -4 28
-10z m-173 -83 c-10 -9 -11 -8 -5 6 3 10 9 15 12 12 3 -3 0 -11 -7 -18z m-237
-31 c-3 -21 -9 -35 -11 -32 -3 3 -2 21 1 42 4 20 10 34 12 31 3 -3 2 -21 -2
-41z m127 13 c-5 -13 -10 -19 -10 -12 -1 15 10 45 15 40 3 -2 0 -15 -5 -28z
m-74 -81 c-3 -7 -5 -2 -5 12 0 14 2 19 5 13 2 -7 2 -19 0 -25z m60 10 c-3 -8
-6 -5 -6 6 -1 11 2 17 5 13 3 -3 4 -12 1 -19z m-280 -65 c-2 -16 -4 -5 -4 22
0 28 2 40 4 28 2 -13 2 -35 0 -50z m1343 -586 c0 -2 -10 -12 -22 -23 l-23 -19
19 23 c18 21 26 27 26 19z m-400 -254 l-5 -148 -27 -3 -28 -3 0 145 c0 150 1
153 45 155 19 1 20 -4 15 -146z m130 87 c-8 -5 -19 -10 -25 -10 -5 0 -3 5 5
10 8 5 20 10 25 10 6 0 3 -5 -5 -10z"/>
<path d="M1463 773 c-8 -3 -13 -24 -13 -57 0 -39 -6 -61 -21 -80 -31 -40 -18
-41 21 -1 26 26 34 45 38 83 4 49 -2 63 -25 55z"/>
<path d="M1390 710 c0 -62 -19 -101 -62 -129 -47 -30 -23 -26 30 5 49 29 72
71 72 134 0 33 -3 40 -20 40 -17 0 -20 -7 -20 -50z"/>
</g>
</svg>
